<svg width="150" height="106" viewBox="0 0 150 106" fill="none" xmlns="http://www.w3.org/2000/svg">
<path d="M149.891 70.3559C148.514 53.4698 134.391 40.4774 117.449 40.5108C114.911 40.5065 112.381 40.8001 109.911 41.3854C109.114 26.8882 98.8523 14.6526 84.7156 11.3427C84.4882 11.2877 84.2583 11.2427 84.0309 11.1978C77.5431 0.650437 63.7334 -2.64045 53.1857 3.8473C48.2591 6.87769 44.694 11.695 43.2359 17.2923C33.1659 12.7464 21.3173 17.2248 16.7715 27.2948C15.6055 29.8779 15.0014 32.6794 14.9998 35.5133C14.9995 36.4007 15.057 37.2871 15.1722 38.167C5.61569 39.4282 -1.10913 48.1977 0.151812 57.7545C0.682489 61.7748 2.59624 65.4845 5.56446 68.2472C5.26211 68.5945 4.94977 68.9369 4.6749 69.3017C1.63733 73.2169 -0.00529836 78.0346 0.0071955 82.99C0.0209387 95.4045 10.0816 105.465 22.4961 105.479H117.449C118.377 105.479 119.276 105.451 120.153 105.371C138.034 103.914 151.348 88.2371 149.891 70.3559ZM8.16131 47.2172C10.5295 44.5448 13.9279 43.0137 17.4986 43.0099H17.6935C17.7766 43.0052 17.8603 43.0052 17.9434 43.0099C18.7764 43.1052 19.6013 42.7722 20.1348 42.1254C20.6689 41.4826 20.846 40.6148 20.6071 39.814C20.1988 38.4172 19.9936 36.9688 19.9974 35.5136C20.0055 27.2367 26.7131 20.5291 34.99 20.521C38.0863 20.5035 41.1092 21.4655 43.6258 23.2696C44.7461 24.0752 46.3076 23.8197 47.1131 22.6993C47.3758 22.3338 47.5351 21.9041 47.5738 21.4555C48.4549 12.0573 56.6016 5.03234 66.0272 5.54334C70.2408 5.78416 74.221 7.5561 77.2192 10.5259C77.0618 10.5259 76.9094 10.5509 76.752 10.5534H76.652C75.4904 10.5843 74.331 10.6761 73.1787 10.8282L73.0438 10.8507C71.9181 11.0025 70.8011 11.2143 69.6979 11.4854L69.513 11.5329C68.4476 11.799 67.3969 12.1201 66.3646 12.4949L66.0747 12.5999C65.1002 12.9647 64.1466 13.3754 63.2136 13.8318C63.0687 13.9017 62.9238 13.9667 62.7813 14.0392C61.9168 14.479 61.0747 14.9612 60.2501 15.4785C60.0627 15.5934 59.8728 15.7009 59.6904 15.8183C58.9157 16.318 58.1661 16.8778 57.4415 17.455C57.2441 17.6099 57.0392 17.7473 56.8443 17.9073C55.9422 18.646 55.0798 19.4315 54.2605 20.2611C52.1937 22.3466 50.4365 24.718 49.0431 27.3026V27.2877L49.0231 27.3176C48.9481 27.4338 48.8819 27.556 48.8257 27.6825C47.7628 29.6424 46.9135 31.7108 46.2919 33.8519C45.7541 35.7057 45.3836 37.6041 45.185 39.5241C45.0457 40.6808 44.9788 41.8449 44.9851 43.0099C44.9851 43.1773 44.9851 43.3448 44.9851 43.5097C39.649 42.4418 34.1107 43.1264 29.1953 45.4612C28.1187 45.9881 27.0786 46.5869 26.0819 47.2528C25.4881 47.6358 24.9228 48.0609 24.3902 48.5247C23.4497 49.264 22.5661 50.0724 21.7465 50.9435C20.9378 51.7912 20.196 52.7002 19.5276 53.6622C17.8556 56.0404 16.614 58.6935 15.8594 61.5008C14.7618 61.8338 13.6952 62.2611 12.671 62.7777C11.5859 63.3212 10.5448 63.9487 9.5575 64.6543C9.45255 64.7267 9.32761 64.7792 9.22516 64.8542C4.06114 60.2777 3.58481 52.3813 8.16131 47.2172ZM119.718 100.392C118.969 100.462 118.219 100.482 117.449 100.482H22.4961C12.8406 100.471 5.01567 92.6458 5.00474 82.9903C4.99662 79.1287 6.27911 75.3753 8.64795 72.3255C9.32512 71.4369 10.0922 70.6204 10.9368 69.8892C12.1365 68.8344 13.4731 67.9461 14.9099 67.248C16.0621 66.6742 17.2784 66.2391 18.5331 65.9511C19.4761 65.7231 20.2016 64.9701 20.3947 64.0196C20.941 61.3328 22.0357 58.7875 23.6106 56.5433C24.1369 55.7802 24.7219 55.0593 25.3597 54.3868C26.0572 53.6494 26.809 52.9653 27.6086 52.3403C28.0031 52.0011 28.4204 51.6897 28.858 51.4083C29.6576 50.8707 30.4925 50.3875 31.3568 49.9615C31.9899 49.6638 32.638 49.3987 33.2983 49.1669C33.7781 48.997 34.2679 48.862 34.7601 48.7296C34.925 48.6846 35.085 48.6297 35.2599 48.5897C35.7846 48.4622 36.3143 48.3673 36.8441 48.2823C36.994 48.2598 37.1439 48.2274 37.2939 48.2074C37.7711 48.1424 38.2509 48.1049 38.7307 48.0749C38.9805 48.0599 39.2104 48.04 39.4528 48.035C39.9226 48.02 40.3873 48.035 40.8521 48.035C41.0195 48.035 41.187 48.035 41.3519 48.0574C41.8191 48.0874 42.2789 48.1399 42.7362 48.2024C42.9086 48.2249 43.0835 48.2424 43.2534 48.2698C43.7232 48.3473 44.188 48.4522 44.6477 48.5647C44.7927 48.5997 44.9401 48.6247 45.085 48.6621C45.6776 48.8211 46.2613 49.0104 46.8342 49.2294C48.1217 49.7263 49.5681 49.0857 50.0651 47.7982C50.2172 47.4046 50.2669 46.9786 50.21 46.5607C50.0526 45.3838 49.9767 44.1975 49.9826 43.0099C49.977 42.0404 50.0304 41.0718 50.1425 40.1088C50.3128 38.4693 50.627 36.8479 51.0821 35.2637C51.6193 33.409 52.3608 31.6196 53.2935 29.9289C53.311 29.8964 53.3285 29.8639 53.3435 29.8314C53.3585 29.7989 53.4034 29.7264 53.4309 29.6715C54.6019 27.5044 56.0781 25.517 57.8138 23.7694C62.9797 18.4739 70.0715 15.4988 77.4691 15.5234C78.3012 15.5234 79.1308 15.5709 79.9329 15.6359C80.65 15.7058 81.3472 15.7933 82.0394 15.9282L82.1818 15.9507C82.6547 16.0101 83.1241 16.0935 83.5886 16.2006C96.0578 19.1142 104.897 30.205 104.956 43.0099C104.956 43.5497 104.931 44.0894 104.908 44.6266C104.848 46.0053 105.918 47.1713 107.297 47.231C107.621 47.245 107.946 47.1957 108.251 47.0854C111.203 46.0309 114.315 45.4975 117.449 45.5087C132.63 45.4825 144.957 57.7674 144.983 72.9477C145.008 87.285 134.009 99.2329 119.718 100.392Z" fill="white"/>
</svg>
