<svg width="870" height="492" viewBox="0 0 870 492" fill="none" xmlns="http://www.w3.org/2000/svg">
<path d="M738.659 240.107H658.208V315.852H738.659V240.107Z" fill="#5E7B7D"/>
<path d="M541.322 146.302V182.751H489.22C465.372 182.751 446.034 202.083 446.034 225.937V146.302H541.322Z" fill="#DADADA"/>
<path d="M360.992 113.759L324.002 146.304L211.653 146.355V146.304H211.682L248.671 113.759H360.992Z" fill="#5E7B7D"/>
<path d="M817.889 377.321V464.741H112.907V259.792L211.653 192.081V146.355H324.002V146.302L385.019 92.6183L446.038 146.302V225.935C446.038 202.083 465.372 182.749 489.224 182.749C513.076 182.749 532.41 202.081 532.41 225.935V240.046C556.58 236.337 579.155 218.284 595.906 182.751C607.426 207.196 621.021 222.743 636.204 231.698C643.014 235.715 650.451 238.558 658.204 240.107V315.852L737.447 377.321H817.889Z" fill="white"/>
<path d="M658.208 315.852H738.659L817.897 377.323H737.447L658.208 315.852Z" fill="#DADADA"/>
<path d="M595.44 104.026C590.916 104.026 586.578 105.823 583.379 109.022C580.18 112.22 578.383 116.559 578.383 121.082C578.383 130.502 595.44 155.968 595.44 155.968C595.44 155.968 612.494 130.504 612.494 121.082C612.494 116.559 610.697 112.221 607.499 109.022C604.301 105.824 599.963 104.026 595.44 104.026ZM595.44 126.21C594.435 126.21 593.453 125.913 592.617 125.355C591.782 124.797 591.131 124.004 590.746 123.076C590.361 122.148 590.261 121.126 590.457 120.141C590.652 119.156 591.136 118.251 591.847 117.54C592.557 116.83 593.462 116.346 594.447 116.15C595.433 115.954 596.454 116.055 597.382 116.44C598.31 116.824 599.103 117.476 599.661 118.311C600.219 119.147 600.516 120.129 600.516 121.133C600.515 122.48 599.98 123.77 599.029 124.722C598.077 125.674 596.786 126.209 595.44 126.21Z" fill="#F3B304"/>
<path d="M595.9 182.753C579.149 218.284 556.574 236.328 532.404 240.046V225.935C532.404 202.085 513.07 182.749 489.218 182.749L595.9 182.753Z" fill="#59221D"/>
<path d="M658.208 182.753V137.917" stroke="#59221D" stroke-width="5" stroke-miterlimit="10"/>
<path d="M640.194 146.304H667.279" stroke="#59221D" stroke-width="5" stroke-miterlimit="10"/>
<path d="M646.265 150.463H667.279" stroke="#59221D" stroke-width="5" stroke-miterlimit="10"/>
<path d="M387.329 160.335C396.26 160.335 403.499 153.095 403.499 144.165C403.499 135.234 396.26 127.994 387.329 127.994C378.398 127.994 371.159 135.234 371.159 144.165C371.159 153.095 378.398 160.335 387.329 160.335Z" fill="#DADADA"/>
<path d="M384.498 156.086C393.428 156.086 400.668 148.846 400.668 139.915C400.668 130.985 393.428 123.745 384.498 123.745C375.567 123.745 368.327 130.985 368.327 139.915C368.327 148.846 375.567 156.086 384.498 156.086Z" stroke="#59221D" stroke-width="5" stroke-miterlimit="10"/>
<path d="M384.497 123.745V156.086" stroke="#59221D" stroke-width="5" stroke-miterlimit="10"/>
<path d="M400.666 139.915H368.327" stroke="#59221D" stroke-width="5" stroke-miterlimit="10"/>
<path d="M312.081 88.6399V123.04C312.081 124.886 311.348 126.657 310.042 127.962C308.737 129.267 306.967 130.001 305.12 130.001V130.001C303.275 130 301.506 129.266 300.201 127.961C298.897 126.655 298.164 124.885 298.164 123.04V88.6399C298.164 90.486 298.897 92.2564 300.203 93.5618C301.508 94.8672 303.278 95.6006 305.125 95.6006C306.971 95.6006 308.741 94.8672 310.046 93.5618C311.352 92.2564 312.085 90.486 312.085 88.6399H312.081Z" stroke="#59221D" stroke-width="5" stroke-miterlimit="10"/>
<path d="M305.125 95.6006C308.969 95.6006 312.085 92.4842 312.085 88.6399C312.085 84.7956 308.969 81.6791 305.125 81.6791C301.28 81.6791 298.164 84.7956 298.164 88.6399C298.164 92.4842 301.28 95.6006 305.125 95.6006Z" stroke="#59221D" stroke-width="5" stroke-miterlimit="10"/>
<path d="M309.252 129.237L328.885 113.759H312.085V124.818L309.252 129.237Z" fill="#59221D"/>
<path d="M262.36 161.109H227.336V174.886H262.36V161.109Z" stroke="#F3B304" stroke-width="5" stroke-miterlimit="10" stroke-linecap="round"/>
<path d="M303.259 161.109H268.235V174.886H303.259V161.109Z" stroke="#F3B304" stroke-width="5" stroke-miterlimit="10" stroke-linecap="round"/>
<path d="M262.36 181.154H227.336V194.931H262.36V181.154Z" stroke="#F3B304" stroke-width="5" stroke-miterlimit="10" stroke-linecap="round"/>
<path d="M303.259 181.154H268.235V194.931H303.259V181.154Z" fill="#F3B304"/>
<path d="M596.063 242.959H597.872C604.671 242.959 611.192 245.66 616 250.468C620.808 255.276 623.509 261.797 623.509 268.596V381.481H570.426V268.596C570.426 261.797 573.127 255.276 577.935 250.468C582.743 245.66 589.264 242.959 596.063 242.959V242.959Z" stroke="#F3B304" stroke-width="5" stroke-miterlimit="10" stroke-linecap="round"/>
<path d="M596.967 242.959V381.481" stroke="#F3B304" stroke-width="5" stroke-miterlimit="10" stroke-linecap="round"/>
<path d="M570.426 270.822H623.509" stroke="#F3B304" stroke-width="5" stroke-miterlimit="10" stroke-linecap="round"/>
<path d="M570.426 298.535H623.509" stroke="#F3B304" stroke-width="5" stroke-miterlimit="10" stroke-linecap="round"/>
<path d="M570.426 326.245H623.509" stroke="#F3B304" stroke-width="5" stroke-miterlimit="10" stroke-linecap="round"/>
<path d="M570.426 353.958H623.509" stroke="#F3B304" stroke-width="5" stroke-miterlimit="10" stroke-linecap="round"/>
<path d="M738.659 240.107H658.208C650.455 238.559 643.017 235.716 636.208 231.698C621.025 222.735 607.43 207.19 595.908 182.753H676.359C693.193 218.479 714.47 235.218 738.659 240.107Z" fill="#5E7B7D"/>
<path d="M385.021 92.6183H480.306L541.322 146.304H446.038L385.021 92.6183Z" fill="white" stroke="#F3B304" stroke-width="5" stroke-linejoin="round"/>
<path d="M466.24 92.6183L527.258 146.304" stroke="#F3B304" stroke-width="5" stroke-miterlimit="10" stroke-linecap="round"/>
<path d="M450.688 92.6183L511.707 146.304" stroke="#F3B304" stroke-width="5" stroke-miterlimit="10" stroke-linecap="round"/>
<path d="M435.139 92.6183L496.156 146.304" stroke="#F3B304" stroke-width="5" stroke-miterlimit="10" stroke-linecap="round"/>
<path d="M419.588 92.6183L480.605 146.304" stroke="#F3B304" stroke-width="5" stroke-miterlimit="10" stroke-linecap="round"/>
<path d="M404.037 92.6183L465.056 146.304" stroke="#F3B304" stroke-width="5" stroke-miterlimit="10" stroke-linecap="round"/>
<path d="M324.002 146.304L385.021 92.6183H480.306" stroke="#F3B304" stroke-width="5" stroke-miterlimit="10" stroke-linecap="round"/>
<path d="M212.075 146.355V191.924L112.907 259.792V464.741" stroke="#F3B304" stroke-width="5" stroke-miterlimit="10" stroke-linecap="round"/>
<path d="M358.904 63.0031C353.06 63.1739 347.285 61.7085 342.23 58.7721C340.993 61.4782 339.055 63.8041 336.616 65.5088C334.177 67.2134 331.327 68.2346 328.361 68.4665C325.394 68.6985 322.42 68.1327 319.746 66.8279C317.072 65.5231 314.795 63.5267 313.153 61.0458C311.51 58.5648 310.561 55.6897 310.404 52.7184C310.247 49.7471 310.887 46.7879 312.259 44.1476C313.631 41.5073 315.684 39.282 318.206 37.7024C320.727 36.1228 323.625 35.2465 326.6 35.1644H326.732C329.069 35.1165 331.39 35.5612 333.543 36.4695C335.697 37.3778 337.635 38.7294 339.232 40.4363C337.865 38.2442 336.007 36.3996 333.805 35.0482C331.604 33.6967 329.118 32.8752 326.545 32.6486C326.545 32.5569 326.545 32.4693 326.545 32.3776C326.373 26.1484 328.052 20.008 331.369 14.733C334.687 9.45792 339.494 5.28517 345.184 2.74237C350.873 0.199579 357.188 -0.599053 363.332 0.447471C369.475 1.49399 375.169 4.33867 379.696 8.62177C384.222 12.9049 387.377 18.434 388.761 24.51C390.145 30.586 389.696 36.936 387.471 42.7569C385.246 48.5778 381.345 53.6082 376.261 57.212C371.177 60.8158 365.139 62.8312 358.91 63.0031H358.904Z" fill="#DADADA"/>
<path d="M305.709 76.9735C308.718 76.9735 311.157 74.5347 311.157 71.5263C311.157 68.5179 308.718 66.0792 305.709 66.0792C302.701 66.0792 300.262 68.5179 300.262 71.5263C300.262 74.5347 302.701 76.9735 305.709 76.9735Z" fill="#DADADA"/>
<path d="M522.891 67.7251H721.059C721.057 66.5091 720.796 65.3075 720.293 64.2003C719.79 63.0932 719.057 62.1059 718.142 61.3044C717.228 60.5029 716.153 59.9056 714.99 59.5521C713.826 59.1987 712.601 59.0974 711.395 59.2549L695.744 61.3164C694.916 61.4258 694.073 61.357 693.274 61.1146C692.474 60.8723 691.736 60.4621 691.107 59.9113C690.479 59.3605 689.976 58.6819 689.631 57.9209C689.286 57.1599 689.107 56.334 689.107 55.4985C689.107 54.3039 688.841 53.1243 688.327 52.0457C687.813 50.9671 687.066 50.0166 686.138 49.2635C685.211 48.5105 684.127 47.9737 682.966 47.6924C681.805 47.4111 680.596 47.3923 679.427 47.6374L658.956 51.9458C657.673 52.2148 656.345 52.1942 655.071 51.8854C653.796 51.5766 652.607 50.9875 651.589 50.1608C650.571 49.3342 649.75 48.2909 649.186 47.107C648.622 45.923 648.329 44.6282 648.329 43.3168C648.329 38.0643 646.242 33.0269 642.528 29.3128C638.814 25.5988 633.777 23.5122 628.524 23.5122C628.194 23.5122 627.864 23.5122 627.536 23.5122C618.463 23.6528 609.547 25.8752 601.376 29.8272L522.891 67.7251Z" fill="#DADADA"/>
<path d="M570.426 464.741H870C870 464.741 870 368.16 782.955 366.296C714.051 364.822 721.065 425.04 671.617 425.83C646.786 426.225 570.426 393.754 570.426 464.741Z" fill="#F3B304"/>
<path d="M834.649 456.804C834.651 459.483 834.302 462.151 833.61 464.739H774.43C773.301 460.527 773.084 456.123 773.794 451.82C774.503 447.518 776.123 443.417 778.545 439.791C780.967 436.165 784.136 433.098 787.838 430.795C791.541 428.492 795.692 427.006 800.015 426.437C804.338 425.867 808.733 426.227 812.906 427.492C817.079 428.758 820.933 430.899 824.212 433.774C827.49 436.649 830.117 440.19 831.917 444.162C833.717 448.134 834.648 452.444 834.649 456.804Z" fill="white"/>
<path d="M804.021 426.16V464.317" stroke="#F3B304" stroke-width="5" stroke-miterlimit="10" stroke-linecap="round"/>
<path d="M811.538 427.315L804.021 437.607" stroke="#F3B304" stroke-width="5" stroke-miterlimit="10" stroke-linecap="round"/>
<path d="M788.378 430.34L804.021 449.854" stroke="#F3B304" stroke-width="5" stroke-miterlimit="10" stroke-linecap="round"/>
<path d="M828.549 438.491L822.096 450.909" stroke="#F3B304" stroke-width="5" stroke-miterlimit="10" stroke-linecap="round"/>
<path d="M779.784 437.607H794.123" stroke="#F3B304" stroke-width="5" stroke-miterlimit="10" stroke-linecap="round"/>
<path d="M773.625 453.209L786.033 464.404" stroke="#F3B304" stroke-width="5" stroke-miterlimit="10" stroke-linecap="round"/>
<path d="M804.021 456.008L833.459 447.841" stroke="#F3B304" stroke-width="5" stroke-miterlimit="10" stroke-linecap="round"/>
<path d="M178.129 428.794C205.195 428.794 227.137 389.178 227.137 340.309C227.137 291.441 205.195 251.825 178.129 251.825C151.062 251.825 129.121 291.441 129.121 340.309C129.121 389.178 151.062 428.794 178.129 428.794Z" fill="#DADADA"/>
<path d="M178.129 281.012V464.317" stroke="#59221D" stroke-width="5" stroke-miterlimit="10" stroke-linecap="round"/>
<path d="M187.565 292.509C187.565 294 187.451 294.84 186.823 296.192L180.304 310.273C178.876 313.353 178.137 316.707 178.137 320.102" stroke="#59221D" stroke-width="5" stroke-miterlimit="10" stroke-linecap="round"/>
<path d="M163.03 313.471V320.525C163.03 325.461 164.955 330.203 168.396 333.742L172.857 338.333C176.238 341.809 178.129 346.467 178.129 351.316" stroke="#59221D" stroke-width="5" stroke-miterlimit="10" stroke-linecap="round"/>
<path d="M192.786 348.763V358.653C192.785 363.006 191.183 367.207 188.284 370.454L181.944 377.555C179.487 380.307 178.129 383.867 178.129 387.556" stroke="#59221D" stroke-width="5" stroke-miterlimit="10" stroke-linecap="round"/>
<path d="M157.467 374.027C157.466 377.06 158.342 380.028 159.987 382.575C161.633 385.122 163.979 387.14 166.743 388.387L171.675 390.611C173.597 391.478 175.228 392.881 176.372 394.651C177.517 396.422 178.127 398.485 178.129 400.593" stroke="#59221D" stroke-width="5" stroke-miterlimit="10" stroke-linecap="round"/>
<path d="M200.812 335.6H205.78V340.568C205.78 342.717 204.927 344.777 203.407 346.297C201.888 347.816 199.827 348.67 197.679 348.67H192.708V343.701C192.708 342.637 192.918 341.583 193.325 340.6C193.732 339.617 194.329 338.724 195.082 337.972C195.834 337.219 196.728 336.623 197.711 336.216C198.694 335.809 199.748 335.599 200.812 335.6Z" stroke="#59221D" stroke-width="5" stroke-miterlimit="10" stroke-linecap="round"/>
<path d="M195.666 284.711H195.951V284.996C195.951 287.145 195.098 289.206 193.578 290.725C192.059 292.244 189.998 293.098 187.85 293.098H187.565V292.813C187.565 290.664 188.418 288.603 189.937 287.084C191.457 285.565 193.517 284.711 195.666 284.711Z" stroke="#59221D" stroke-width="5" stroke-miterlimit="10" stroke-linecap="round"/>
<path d="M184.806 345.988L184.929 345.731L185.186 345.854C187.125 346.78 188.616 348.438 189.333 350.464C190.049 352.49 189.931 354.717 189.005 356.656L188.882 356.913L188.625 356.79C186.686 355.864 185.194 354.206 184.478 352.18C183.762 350.154 183.88 347.927 184.806 345.988Z" fill="#59221D"/>
<path d="M167.595 297.03L167.845 296.886L167.988 297.133C169.062 298.993 169.353 301.205 168.797 303.28C168.241 305.356 166.883 307.125 165.022 308.199L164.775 308.342L164.633 308.095C163.559 306.235 163.268 304.024 163.823 301.95C164.378 299.875 165.735 298.105 167.595 297.03Z" fill="#59221D"/>
<path d="M192.745 404.542L193.011 404.646L192.907 404.912C192.123 406.912 190.577 408.52 188.608 409.38C186.639 410.241 184.409 410.284 182.409 409.5L182.143 409.396L182.247 409.131C183.031 407.13 184.577 405.523 186.546 404.662C188.515 403.802 190.745 403.758 192.745 404.542Z" fill="#59221D"/>
<path d="M168.478 374.124L168.605 373.858L168.863 373.981C170.801 374.907 172.293 376.565 173.009 378.591C173.725 380.617 173.607 382.844 172.681 384.783L172.559 385.04L172.301 384.917C170.364 383.992 168.873 382.336 168.156 380.312C167.439 378.288 167.555 376.063 168.478 374.124Z" fill="#59221D"/>
<path d="M162.887 313.958H161.946C159.798 313.958 157.737 313.104 156.218 311.585C154.698 310.065 153.845 308.005 153.845 305.856V304.915H154.782C156.93 304.915 158.991 305.769 160.51 307.288C162.03 308.807 162.883 310.868 162.883 313.017V313.958H162.887Z" stroke="#59221D" stroke-width="5" stroke-miterlimit="10" stroke-linecap="round"/>
<path d="M175.514 267.696L177.974 265.236L180.434 267.696C181.953 269.215 182.807 271.276 182.807 273.425C182.807 275.573 181.953 277.634 180.434 279.153L177.98 281.608L175.519 279.148C174.001 277.629 173.148 275.57 173.147 273.423C173.145 271.276 173.997 269.216 175.514 267.696V267.696Z" stroke="#59221D" stroke-width="5" stroke-miterlimit="10" stroke-linecap="round"/>
<path d="M155.024 360.627L157.484 358.167L159.944 360.627C161.464 362.146 162.317 364.207 162.317 366.356C162.317 368.504 161.464 370.565 159.944 372.084L157.484 374.545L155.024 372.084C153.505 370.565 152.651 368.504 152.651 366.356C152.651 364.207 153.505 362.146 155.024 360.627V360.627Z" stroke="#59221D" stroke-width="5" stroke-miterlimit="10" stroke-linecap="round"/>
<path d="M200.905 296.276L201.097 296.486L200.887 296.679C199.301 298.129 197.205 298.89 195.058 298.794C192.912 298.699 190.891 297.754 189.441 296.169L189.249 295.958L189.459 295.766C191.044 294.316 193.141 293.555 195.287 293.65C197.434 293.746 199.455 294.69 200.905 296.276Z" fill="#59221D"/>
<path d="M632.851 435.435C653.069 435.435 669.459 410.433 669.459 379.59C669.459 348.748 653.069 323.746 632.851 323.746C612.632 323.746 596.242 348.748 596.242 379.59C596.242 410.433 612.632 435.435 632.851 435.435Z" fill="white" stroke="#59221D" stroke-width="5" stroke-miterlimit="10" stroke-linecap="round"/>
<path d="M630.602 333.679V464.537" stroke="#59221D" stroke-width="5" stroke-miterlimit="10" stroke-linecap="round"/>
<path d="M640.592 348.515C640.592 352.138 639.597 355.692 637.715 358.788L632.812 366.851C631.366 369.229 630.602 371.959 630.602 374.742" stroke="#59221D" stroke-width="5" stroke-miterlimit="10" stroke-linecap="round"/>
<path d="M620.742 353.106V371.972C620.742 376.06 621.924 380.061 624.144 383.494L627.369 388.482C629.48 391.746 630.603 395.551 630.602 399.438" stroke="#59221D" stroke-width="5" stroke-miterlimit="10" stroke-linecap="round"/>
<path d="M640.592 384.29V392.438C640.59 396.059 639.707 399.625 638.017 402.828L631.983 414.262C631.076 415.98 630.602 417.894 630.602 419.837" stroke="#59221D" stroke-width="5" stroke-miterlimit="10" stroke-linecap="round"/>
<path d="M641.663 441.127H646.632V446.095C646.632 448.244 645.778 450.304 644.259 451.824C642.74 453.343 640.679 454.197 638.53 454.197H633.562V449.228C633.562 447.08 634.415 445.019 635.935 443.5C637.454 441.98 639.515 441.127 641.663 441.127Z" stroke="#59221D" stroke-width="5" stroke-miterlimit="10" stroke-linecap="round"/>
<path d="M630.602 456.849L641.702 446.564" stroke="#59221D" stroke-width="5" stroke-miterlimit="10" stroke-linecap="round"/>
<path d="M640.537 380.377L640.305 380.258C639.44 379.811 638.671 379.198 638.042 378.455C637.414 377.711 636.938 376.851 636.642 375.923C636.346 374.995 636.235 374.018 636.317 373.048C636.398 372.078 636.67 371.133 637.117 370.268L637.236 370.036L637.47 370.156C639.217 371.058 640.535 372.618 641.133 374.491C641.731 376.365 641.56 378.399 640.658 380.146L640.538 380.378L640.537 380.377Z" fill="#F3B304"/>
<path d="M640.811 348.793L640.747 348.534C640.274 346.625 640.579 344.606 641.595 342.922C642.61 341.238 644.253 340.026 646.162 339.553L646.415 339.491L646.478 339.744C646.95 341.653 646.646 343.671 645.63 345.355C644.614 347.04 642.972 348.251 641.063 348.724L640.81 348.787L640.811 348.793Z" fill="#F3B304"/>
<path d="M640.538 348.752L640.312 348.621C638.609 347.638 637.366 346.019 636.857 344.119C636.348 342.219 636.614 340.195 637.598 338.492L637.728 338.266L637.961 338.401C639.664 339.384 640.907 341.004 641.416 342.903C641.925 344.803 641.658 346.827 640.675 348.53L640.545 348.756L640.538 348.752Z" stroke="#59221D" stroke-width="5" stroke-miterlimit="10" stroke-linecap="round"/>
<path d="M623.065 406.151L622.805 406.137C621.833 406.085 620.88 405.841 620.002 405.421C619.123 405 618.336 404.411 617.686 403.687C617.035 402.962 616.534 402.116 616.21 401.198C615.886 400.28 615.747 399.307 615.799 398.334L615.813 398.074L616.073 398.088C618.037 398.194 619.878 399.075 621.192 400.538C622.506 402.002 623.185 403.927 623.079 405.891L623.065 406.151Z" fill="#F3B304"/>
<path d="M643.589 380.96L643.559 380.645C643.336 378.286 644.059 375.935 645.57 374.109C647.08 372.283 649.254 371.132 651.613 370.909L651.928 370.88L651.957 371.194C652.18 373.553 651.457 375.904 649.947 377.73C648.436 379.556 646.262 380.707 643.903 380.93L643.589 380.96Z" stroke="#59221D" stroke-width="5" stroke-miterlimit="10" stroke-linecap="round"/>
<path d="M623.299 405.566L623.076 405.342C621.4 403.667 620.459 401.394 620.459 399.025C620.459 396.655 621.4 394.383 623.076 392.707L623.299 392.484L623.522 392.707C625.198 394.383 626.139 396.655 626.139 399.025C626.139 401.394 625.198 403.667 623.522 405.342L623.299 405.566Z" stroke="#59221D" stroke-width="5" stroke-miterlimit="10" stroke-linecap="round"/>
<path d="M613.293 363.65V365.046C613.293 366.126 613.722 367.163 614.486 367.927C615.25 368.691 616.286 369.12 617.367 369.12V369.12C618.265 369.12 619.126 369.477 619.761 370.112C620.396 370.746 620.753 371.608 620.753 372.506" stroke="#59221D" stroke-width="5" stroke-miterlimit="10" stroke-linecap="round"/>
<path d="M308.152 345.596H387.541V347.075C387.541 350.111 386.335 353.024 384.187 355.171C382.04 357.319 379.127 358.525 376.091 358.525H298.162V355.583C298.161 354.271 298.419 352.972 298.921 351.76C299.422 350.548 300.158 349.446 301.086 348.518C302.014 347.591 303.116 346.855 304.328 346.354C305.54 345.852 306.84 345.595 308.152 345.596Z" fill="#A74602"/>
<path d="M558.756 477.904C576.071 477.904 590.107 463.868 590.107 446.553C590.107 429.239 576.071 415.203 558.756 415.203C541.441 415.203 527.405 429.239 527.405 446.553C527.405 463.868 541.441 477.904 558.756 477.904Z" fill="#A74602"/>
<path d="M533.435 465.044C528.867 458.779 526.782 451.043 527.583 443.33C528.385 435.618 532.016 428.476 537.776 423.284C543.535 418.092 551.014 415.219 558.768 415.219C566.522 415.219 574.001 418.092 579.76 423.284L533.435 465.044Z" fill="#59221D"/>
<path d="M558.756 455.543C563.715 455.543 567.735 451.523 567.735 446.564C567.735 441.604 563.715 437.584 558.756 437.584C553.797 437.584 549.776 441.604 549.776 446.564C549.776 451.523 553.797 455.543 558.756 455.543Z" stroke="white" stroke-width="5" stroke-miterlimit="10"/>
<path d="M272.517 477.904C289.832 477.904 303.868 463.868 303.868 446.553C303.868 429.239 289.832 415.203 272.517 415.203C255.202 415.203 241.166 429.239 241.166 446.553C241.166 463.868 255.202 477.904 272.517 477.904Z" fill="#A74602"/>
<path d="M242.792 436.562C245.164 429.514 249.963 423.538 256.333 419.702C262.703 415.865 270.23 414.417 277.568 415.617C284.907 416.816 291.581 420.585 296.398 426.25C301.216 431.915 303.863 439.107 303.868 446.543L242.792 436.562Z" fill="#59221D"/>
<path d="M272.531 455.543C277.491 455.543 281.511 451.523 281.511 446.564C281.511 441.604 277.491 437.584 272.531 437.584C267.572 437.584 263.552 441.604 263.552 446.564C263.552 451.523 267.572 455.543 272.531 455.543Z" stroke="white" stroke-width="5" stroke-miterlimit="10"/>
<path d="M514.054 296.378C514.055 299.929 512.791 303.365 510.49 306.069C508.188 308.774 504.999 310.572 501.494 311.14C497.988 311.709 494.395 311.011 491.356 309.172C488.318 307.333 486.034 304.473 484.912 301.104L510.149 286.3C512.666 289.052 514.06 292.648 514.054 296.378Z" fill="#F3B304"/>
<path d="M510.149 286.3L484.912 301.104C483.828 297.852 483.895 294.326 485.1 291.117C486.305 287.909 488.576 285.211 491.533 283.477C494.49 281.743 497.952 281.077 501.341 281.591C504.73 282.105 507.84 283.767 510.149 286.3Z" fill="white" stroke="#59221D" stroke-width="5" stroke-miterlimit="10" stroke-linecap="round"/>
<path d="M362.369 443.473V358.527H303.662C261.077 358.527 225.642 391.265 222.291 433.718H295.626C300.559 433.718 305.437 434.757 309.943 436.766C314.448 438.775 318.481 441.71 321.778 445.38L332.446 457.254C334.562 459.611 337.151 461.496 340.043 462.786C342.936 464.076 346.068 464.743 349.236 464.743H495.924C501.739 464.742 507.449 463.191 512.465 460.249L591.75 413.732C591.75 413.732 583.146 385.997 547.391 393.426L486.111 293.183C484.993 291.355 483.424 289.844 481.555 288.796C479.686 287.748 477.578 287.197 475.435 287.196H464.048V292.684H468.857C471.265 292.684 473.621 293.377 475.645 294.682C477.668 295.987 479.272 297.847 480.265 300.04L517.682 382.768C533.087 416.818 508.187 455.411 470.815 455.411H374.3C372.733 455.411 371.181 455.102 369.733 454.502C368.285 453.902 366.969 453.023 365.861 451.914C364.753 450.805 363.874 449.489 363.275 448.041C362.676 446.593 362.368 445.041 362.369 443.473Z" fill="white" stroke="#59221D" stroke-width="5" stroke-miterlimit="10" stroke-linecap="round"/>
<path d="M229.567 433.518C232.943 412.74 250.977 396.865 272.715 396.865C296.858 396.865 316.43 416.437 316.43 440.581" stroke="#59221D" stroke-width="5" stroke-miterlimit="10"/>
<path d="M547.772 393.229C539.039 395.751 531.844 401.45 527.792 408.851" stroke="#59221D" stroke-width="5" stroke-miterlimit="10"/>
<path d="M464.63 293.913C468.079 293.913 470.874 291.117 470.874 287.669C470.874 284.221 468.079 281.425 464.63 281.425C461.182 281.425 458.387 284.221 458.387 287.669C458.387 291.117 461.182 293.913 464.63 293.913Z" fill="#59221D"/>
<path d="M470.628 245.443C474.889 239.689 476.571 233.713 474.386 232.095C472.2 230.476 466.975 233.829 462.714 239.583C458.453 245.337 456.771 251.313 458.956 252.932C461.141 254.55 466.367 251.197 470.628 245.443Z" fill="#F3B304"/>
<path d="M469.085 244.128C473.481 238.191 475.217 232.023 472.961 230.353C470.705 228.682 465.312 232.142 460.916 238.079C456.519 244.017 454.783 250.184 457.039 251.855C459.295 253.525 464.688 250.066 469.085 244.128Z" stroke="#59221D" stroke-width="5" stroke-miterlimit="10" stroke-linecap="round"/>
<path d="M482.178 289.174V265.157C482.177 261.884 480.965 258.727 478.774 256.296L465.225 241.266" stroke="#59221D" stroke-width="5" stroke-miterlimit="10" stroke-linecap="round"/>
<path d="M362.371 358.527V372.442L298.164 358.731V358.716C299.981 358.591 301.814 358.53 303.664 358.531L362.371 358.527Z" fill="#59221D"/>
<path d="M272.517 477.904H620.742" stroke="#59221D" stroke-width="5" stroke-miterlimit="10"/>
<path d="M391.552 488.929H591.751" stroke="#59221D" stroke-width="5" stroke-miterlimit="10"/>
<path d="M219.274 446.615C217.442 438.645 212.961 431.533 206.563 426.44C200.166 421.346 192.23 418.574 184.053 418.574C177.133 418.574 170.349 416.656 164.454 413.032C158.559 409.408 153.785 404.221 150.661 398.046L140.498 377.953C135.651 368.372 127.717 360.704 117.976 356.188C108.235 351.671 97.2565 350.569 86.8125 353.06C76.3685 355.551 67.0689 361.489 60.4151 369.916C53.7613 378.343 50.1417 388.766 50.1409 399.503V407.099C55.7773 407.483 61.2176 409.323 65.9306 412.438C70.6436 415.553 74.468 419.838 77.0304 424.873C73.9742 421.035 70.091 417.936 65.6704 415.808C61.2497 413.68 56.4057 412.578 51.4996 412.583C51.0453 412.583 50.5911 412.593 50.1409 412.612C41.7179 412.957 33.7548 416.547 27.9174 422.629C22.0799 428.711 18.8203 436.814 18.8203 445.245C18.8203 453.675 22.0799 461.778 27.9174 467.86C33.7548 473.942 41.7179 477.532 50.1409 477.878L267.547 477.906C237.477 477.9 223.489 464.926 219.274 446.615ZM45.9567 433.408C45.1292 433.408 44.3202 433.163 43.6321 432.703C42.944 432.243 42.4077 431.59 42.091 430.825C41.7743 430.061 41.6915 429.219 41.8529 428.408C42.0144 427.596 42.4129 426.85 42.998 426.265C43.5832 425.68 44.3288 425.282 45.1404 425.12C45.9521 424.959 46.7934 425.042 47.5579 425.358C48.3225 425.675 48.976 426.211 49.4357 426.899C49.8955 427.587 50.1409 428.396 50.1409 429.224C50.1409 430.334 49.7 431.398 48.9154 432.183C48.1307 432.967 47.0664 433.408 45.9567 433.408Z" fill="#5E7B7D"/>
<path d="M7.42925 477.006C11.5323 477.006 14.8585 473.68 14.8585 469.577C14.8585 465.473 11.5323 462.147 7.42925 462.147C3.32619 462.147 0 465.473 0 469.577C0 473.68 3.32619 477.006 7.42925 477.006Z" fill="#5E7B7D"/>
<path d="M467.242 439.941C444.6 446.301 421.611 442.104 415.559 440.786C415.579 440.74 415.6 440.691 415.622 440.642L465.82 337.158V434.233C465.822 436.223 466.31 438.183 467.242 439.941Z" fill="#59221D"/>
<path d="M476.506 453.551V455.407H424.663C417.125 455.407 412.1 447.651 415.137 440.786C421.197 442.104 444.178 446.301 466.82 439.941C467.653 441.511 468.818 442.88 470.234 443.952L472.642 445.785C473.842 446.693 474.816 447.867 475.486 449.214C476.156 450.562 476.506 452.046 476.506 453.551Z" fill="#A74602" stroke="#59221D" stroke-width="5" stroke-miterlimit="10"/>
<path d="M462.74 345.286L418.792 436.01C418.005 437.638 417.86 439.502 418.384 441.233C418.384 441.233 390.177 452.64 363.943 449.251C363.032 447.637 362.509 445.834 362.414 443.984C362.32 442.133 362.657 440.286 363.399 438.588L400.018 353.846C400.435 352.881 400.606 351.827 400.514 350.78C400.423 349.733 400.073 348.725 399.496 347.846C398.919 346.968 398.132 346.246 397.207 345.747C396.282 345.248 395.247 344.987 394.196 344.986H341.639C336.912 344.986 332.239 343.975 327.935 342.02C323.63 340.065 319.794 337.212 316.683 333.652L387.669 301.607H435.366C457.81 301.605 472.524 325.08 462.74 345.286Z" fill="white" stroke="#59221D" stroke-width="5" stroke-miterlimit="10" stroke-linecap="round"/>
<path d="M405.453 314.282C427.898 314.282 442.612 337.759 432.827 357.957L388.879 448.68" stroke="#59221D" stroke-width="5" stroke-miterlimit="10" stroke-linecap="round" stroke-dasharray="20 20"/>
<path d="M426.714 455.407H374.453C372.309 455.414 370.202 454.846 368.352 453.762C366.503 452.678 364.978 451.117 363.937 449.242C390.171 452.626 418.378 441.224 418.378 441.224C418.749 442.458 419.444 443.569 420.391 444.441L422.945 446.804C424.134 447.9 425.083 449.23 425.731 450.71C426.38 452.191 426.715 453.79 426.714 455.407Z" fill="white" stroke="#59221D" stroke-width="5" stroke-miterlimit="10"/>
<path d="M400.205 208.394L393.972 217.237C390.154 214.613 385.628 213.212 380.996 213.22H371.36C370.841 213.22 370.323 213.228 369.806 213.244L383.403 200.867L400.205 208.394Z" fill="white" stroke="#59221D" stroke-width="5" stroke-miterlimit="10" stroke-linecap="round"/>
<path d="M405.045 192.484L406.563 201.812C406.623 202.324 406.495 202.84 406.202 203.264C405.909 203.688 405.472 203.991 404.972 204.116L404.844 204.147C404.346 204.268 403.896 204.537 403.553 204.919C403.211 205.301 402.992 205.777 402.925 206.285L402.517 209.386C402.432 210.026 402.097 210.607 401.585 211C401.073 211.394 400.426 211.57 399.786 211.488C396.288 211.022 390.071 209.345 388.35 203.315C385.915 194.788 394.982 192.478 394.982 192.478L405.045 192.484Z" fill="white" stroke="#59221D" stroke-width="5" stroke-miterlimit="10" stroke-linecap="round"/>
<path d="M397.252 195.682C397.252 195.682 399.23 194.527 400.977 194.497" stroke="#59221D" stroke-width="5" stroke-miterlimit="10" stroke-linecap="round"/>
<path d="M399.906 199.649C400.255 199.649 400.537 199.147 400.537 198.528C400.537 197.909 400.255 197.408 399.906 197.408C399.557 197.408 399.274 197.909 399.274 198.528C399.274 199.147 399.557 199.649 399.906 199.649Z" fill="#59221D"/>
<path d="M402.86 206.402C400.484 206.402 399.981 204.092 399.981 204.092" stroke="#59221D" stroke-width="5" stroke-miterlimit="10" stroke-linecap="round"/>
<path d="M382.2 199.793L381.921 199.182C380.574 196.249 380.446 192.902 381.566 189.875C382.685 186.848 384.96 184.389 387.891 183.038L389.454 182.317C390.846 181.675 392.361 181.342 393.894 181.343C395.428 181.343 396.942 181.676 398.334 182.319C399.726 182.962 400.962 183.9 401.956 185.067C402.95 186.235 403.679 187.604 404.092 189.08L405.046 192.482H397.366C396.376 192.482 395.427 192.875 394.727 193.575C394.027 194.275 393.634 195.224 393.634 196.214V197.457C393.634 198.941 393.044 200.364 391.995 201.414C390.945 202.463 389.522 203.053 388.038 203.053H387.284C386.214 203.053 385.166 202.746 384.264 202.168C383.363 201.59 382.647 200.766 382.2 199.793Z" fill="#59221D"/>
<path d="M397.435 213.267C397.38 213.266 397.325 213.263 397.27 213.256C396.024 213.102 393.259 212.342 390.798 210.474C387.812 208.204 386.341 205.104 386.543 201.511C386.563 201.159 386.721 200.83 386.983 200.596C387.246 200.362 387.59 200.241 387.941 200.261C388.293 200.28 388.622 200.439 388.856 200.701C389.09 200.963 389.211 201.308 389.191 201.659C388.829 208.133 395.842 210.419 397.6 210.622C397.951 210.644 398.28 210.804 398.513 211.067C398.746 211.331 398.865 211.676 398.844 212.027C398.823 212.378 398.663 212.706 398.399 212.94C398.136 213.173 397.79 213.292 397.439 213.271L397.435 213.267Z" fill="#59221D"/>
<path d="M387.936 201.51C389.753 201.51 391.226 200.038 391.226 198.221C391.226 196.404 389.753 194.931 387.936 194.931C386.119 194.931 384.646 196.404 384.646 198.221C384.646 200.038 386.119 201.51 387.936 201.51Z" stroke="white" stroke-width="5" stroke-miterlimit="10"/>
<path d="M395.74 193.036C394.155 193.326 399.03 191.27 402.463 189.437C402.254 188.868 402.148 188.268 402.149 187.662C402.149 184.678 404.669 182.26 407.775 182.26C410.882 182.26 413.404 184.678 413.404 187.662C413.404 190.647 410.884 193.063 407.775 193.063L395.74 193.036Z" fill="#F3B304"/>
<path d="M416.938 189.264C418.031 189.264 418.918 188.377 418.918 187.284C418.918 186.19 418.031 185.304 416.938 185.304C415.844 185.304 414.958 186.19 414.958 187.284C414.958 188.377 415.844 189.264 416.938 189.264Z" fill="#F3B304"/>
<path d="M442.882 302.521C442.882 302.521 391.648 330.757 364.11 312.24C364.11 312.24 337.848 330.071 316.685 333.65V284.12C316.685 273.697 321.344 258.15 326.463 244.214C329.872 234.942 336.044 226.94 344.146 221.288C352.248 215.636 361.889 212.606 371.768 212.609H381.411C387.5 212.609 393.34 215.027 397.645 219.333C401.951 223.638 404.369 229.478 404.369 235.567V261.888C404.369 262.691 404.547 263.485 404.889 264.213C405.231 264.94 405.729 265.583 406.348 266.095C406.967 266.608 407.692 266.977 408.47 267.177C409.249 267.378 410.062 267.404 410.851 267.253L441.479 261.427C438.967 263.872 437.107 272.646 437.107 282.098C437.103 293.247 439.69 302.521 442.882 302.521Z" fill="#F3B304"/>
<path d="M447.643 282.098C447.643 293.247 445.056 302.521 441.864 302.521C438.672 302.521 436.085 293.247 436.085 282.098C436.085 270.949 438.672 261.772 441.864 261.772C445.056 261.772 447.643 270.949 447.643 282.098Z" fill="white" stroke="#F3B304" stroke-width="5" stroke-miterlimit="10"/>
<path d="M477.289 271.275V291.25H474.463C473.513 291.25 472.603 290.873 471.931 290.201C471.259 289.53 470.882 288.619 470.882 287.669C470.882 286.013 470.225 284.425 469.054 283.254C467.884 282.083 466.296 281.424 464.64 281.423C462.985 281.425 461.397 282.084 460.227 283.255C459.056 284.426 458.398 286.013 458.397 287.669C458.397 289.62 458.013 291.551 457.267 293.353C456.521 295.156 455.427 296.793 454.048 298.172C452.669 299.552 451.031 300.646 449.229 301.392C447.427 302.138 445.495 302.522 443.544 302.521H442.895H442.742C439.621 302.23 437.115 293.078 437.115 282.104C437.115 277.078 437.643 272.454 438.511 268.891L446.15 265.339L450.418 263.354C452.615 262.333 455.084 262.054 457.454 262.558L472.884 265.838C474.13 266.104 475.246 266.788 476.047 267.778C476.849 268.767 477.287 270.001 477.289 271.275Z" fill="white" stroke="#59221D" stroke-width="5" stroke-miterlimit="10" stroke-linecap="round"/>
<path d="M462.807 271.609L472.874 273.748C474.121 274.014 475.239 274.699 476.041 275.69C476.843 276.682 477.281 277.918 477.281 279.193V291.047" stroke="#59221D" stroke-width="5" stroke-miterlimit="10" stroke-linecap="round"/>
<path d="M448.662 282.098C448.662 293.249 446.074 302.521 442.882 302.521H442.73C439.609 302.23 437.103 293.078 437.103 282.104C437.103 277.078 437.631 272.454 438.499 268.891L446.138 265.339C447.663 269.007 448.662 275.172 448.662 282.098Z" fill="#59221D"/>
<path d="M367.472 314.73C357.783 308.415 348.51 298.062 351.258 266.811" stroke="white" stroke-width="5" stroke-miterlimit="10" stroke-linecap="round"/>
<path d="M366.811 314.624C350.001 333.324 316.685 333.65 316.685 333.65V298.054C317.972 321.792 353.719 309.35 358.516 307.584C360.951 310.517 363.935 312.729 366.811 314.624Z" fill="#59221D"/>
<path d="M371.342 211.975V212.609C360.127 213.196 349.41 217.431 340.824 224.671C332.238 231.91 326.252 241.756 323.778 252.711L316.685 284.12V211.975H371.342Z" fill="#59221D"/>
<path d="M316.685 212.609V333.652H258.628C250.072 333.652 242.912 327.205 241.172 318.6C240.901 317.265 240.764 315.905 240.765 314.542V231.716C240.765 231.674 240.765 231.629 240.765 231.584C240.774 229.498 241.106 227.427 241.749 225.442C244.175 217.97 250.812 212.609 258.622 212.609H316.685Z" fill="white" stroke="#59221D" stroke-width="5" stroke-miterlimit="10" stroke-linecap="round"/>
<path d="M316.685 313.444V319.586H241.174C240.904 318.34 240.767 317.068 240.767 315.793V313.444H316.685Z" fill="#59221D"/>
<path d="M316.685 225.442V231.584H240.783C240.793 229.498 241.125 227.427 241.767 225.442H316.685Z" fill="#59221D"/>
<path d="M316.053 233.452H241.386V234.471H316.053V233.452Z" fill="#5E7B7D"/>
<path d="M282.833 290.285V257.42C282.833 257.109 282.956 256.811 283.176 256.591C283.396 256.371 283.695 256.247 284.006 256.247V256.247C284.317 256.247 284.616 256.371 284.836 256.591C285.056 256.811 285.179 257.109 285.179 257.42V271.163" stroke="#5E7B7D" stroke-width="5" stroke-miterlimit="10"/>
<path d="M282.833 290.285V271.156H288.117V281.271C288.117 283.107 287.628 284.911 286.699 286.495C285.77 288.08 284.435 289.388 282.833 290.285V290.285Z" stroke="#5E7B7D" stroke-width="5" stroke-miterlimit="10"/>
<path d="M276.636 256.247L277.182 262.733C277.225 263.249 277.161 263.769 276.993 264.259C276.826 264.749 276.558 265.199 276.207 265.581C275.857 265.962 275.431 266.266 274.957 266.475C274.482 266.683 273.97 266.791 273.452 266.791V266.791C272.934 266.791 272.421 266.684 271.947 266.475C271.472 266.267 271.046 265.963 270.696 265.581C270.345 265.2 270.077 264.75 269.91 264.259C269.742 263.769 269.678 263.249 269.722 262.733L270.266 256.247" stroke="#F3B304" stroke-width="5" stroke-miterlimit="10" stroke-linecap="round"/>
<path d="M273.448 256.247V272.291" stroke="#F3B304" stroke-width="5" stroke-miterlimit="10" stroke-linecap="round"/>
<path d="M273.884 272.55H273.073C272.576 272.55 272.173 272.953 272.173 273.45V289.39C272.173 289.888 272.576 290.291 273.073 290.291H273.884C274.381 290.291 274.784 289.888 274.784 289.39V273.45C274.784 272.953 274.381 272.55 273.884 272.55Z" stroke="#F3B304" stroke-width="5" stroke-miterlimit="10" stroke-linecap="round"/>
</svg>
