<svg width="150" height="150" viewBox="0 0 150 150" fill="none" xmlns="http://www.w3.org/2000/svg">
<path d="M97.851 18.7805C94.6149 18.7805 91.9917 16.1573 91.9917 12.9212V5.86018C91.9917 2.62409 94.6149 0.00087738 97.851 0.00087738C101.087 0.00087738 103.71 2.62409 103.71 5.86018V12.9215C103.71 16.1573 101.087 18.7805 97.851 18.7805ZM139.14 47.5386L145.882 45.4383C148.972 44.4757 150.696 41.1909 149.733 38.1013C148.771 35.012 145.488 33.2873 142.396 34.25L135.655 36.3503C132.565 37.3129 130.841 40.5977 131.803 43.6873C132.585 46.1965 134.899 47.8052 137.396 47.8052C137.973 47.8055 138.56 47.7194 139.14 47.5386ZM127.177 24.2772L131.278 18.7108C133.198 16.1058 132.642 12.4375 130.037 10.518C127.432 8.59882 123.764 9.15399 121.844 11.7593L117.742 17.3257C115.823 19.9307 116.379 23.5989 118.984 25.5184C120.03 26.2895 121.248 26.661 122.455 26.661C124.253 26.661 126.028 25.8357 127.177 24.2772ZM77.6358 24.9029C80.2247 22.9614 80.7491 19.2885 78.8077 16.6999L74.4132 10.8406C72.4714 8.25195 68.7994 7.72667 66.2102 9.66873C63.6212 11.6102 63.0968 15.2831 65.0383 17.8718L69.4328 23.7311C70.5841 25.2659 72.3434 26.0751 74.1249 26.0751C75.3477 26.0751 76.5817 25.6933 77.6358 24.9029ZM149.741 70.271C150.689 67.1767 148.949 63.9001 145.855 62.9524L139.103 60.8841C136.009 59.9354 132.733 61.6759 131.785 64.7699C130.837 67.8642 132.577 71.1408 135.671 72.0885L142.423 74.1568C142.995 74.332 143.573 74.4155 144.141 74.4155C146.648 74.4155 148.968 72.7934 149.741 70.271ZM118.985 127.299C123.304 122.904 125.682 117.05 125.682 110.815C125.682 103.759 122.537 97.2194 117.241 92.8343C117.594 91.1052 117.772 89.3676 117.772 87.6356C117.772 73.3585 106.635 61.6361 92.5996 60.7165C90.7738 55.3417 87.5287 50.4967 83.1746 46.7356C77.3841 41.7335 69.9915 38.9787 62.358 38.9787C46.9509 38.9787 34.1416 49.6456 31.1062 64.1049C13.627 66.0895 0 81.0286 0 99.1043C0 108.475 3.60347 117.275 10.1466 123.885C16.7184 130.523 25.4962 134.179 34.8629 134.179C38.099 134.179 40.7222 131.556 40.7222 128.319C40.7222 125.083 38.099 122.46 34.8629 122.46C22.101 122.46 11.7186 111.982 11.7186 99.104C11.7186 86.1432 22.1962 75.5991 35.0747 75.5991C35.3694 75.5991 35.6914 75.6064 36.0593 75.6217C37.6132 75.6873 39.1372 75.1263 40.2818 74.066C41.4262 73.0061 42.1006 71.5333 42.1557 69.9748C42.5386 59.1649 51.4122 50.6974 62.358 50.6974C72.1676 50.6974 80.7471 58.0256 82.3142 67.7435C82.8163 70.8563 85.6921 73.0134 88.82 72.6252C89.0872 72.5921 90.586 72.3768 90.8189 72.3768C99.2191 72.3768 106.053 79.2219 106.053 87.6356C106.053 89.4491 105.686 91.3123 104.961 93.1729C103.878 95.9549 105.059 99.1061 107.704 100.491C111.565 102.511 113.963 106.467 113.963 110.815C113.963 117.345 108.944 122.46 102.537 122.46C99.3012 122.46 96.678 125.084 96.678 128.32C96.678 131.556 99.3012 134.179 102.537 134.179C108.784 134.179 114.626 131.736 118.985 127.299ZM118.944 60.3517C115.708 60.3517 113.085 57.7285 113.085 54.4924C113.085 46.0922 106.204 39.2582 97.7458 39.2582C95.7551 39.2582 94.1324 39.4574 92.9227 39.8503C89.8443 40.8496 86.5393 39.1657 85.5397 36.0881C84.5398 33.0105 86.2244 29.7049 89.302 28.705C91.7163 27.9208 94.4784 27.5393 97.7458 27.5393C112.665 27.5393 124.803 39.6303 124.803 54.4921C124.803 57.7285 122.18 60.3517 118.944 60.3517ZM49.8041 118.945C49.8041 122.99 53.0833 126.269 57.1282 126.269C61.1732 126.269 64.4524 122.99 64.4524 118.945C64.4524 114.9 61.1732 111.621 57.1282 111.621C53.0833 111.621 49.8041 114.9 49.8041 118.945ZM49.8041 142.675C49.8041 146.72 53.0833 149.999 57.1282 149.999C61.1732 149.999 64.4524 146.72 64.4524 142.675C64.4524 138.63 61.1732 135.351 57.1282 135.351C53.0833 135.351 49.8041 138.63 49.8041 142.675ZM73.2413 118.945C73.2413 122.99 76.5205 126.269 80.5655 126.269C84.6104 126.269 87.8896 122.99 87.8896 118.945C87.8896 114.9 84.6104 111.621 80.5655 111.621C76.5205 111.621 73.2413 114.9 73.2413 118.945ZM49.8041 95.5076C49.8041 99.5525 53.0833 102.832 57.1282 102.832C61.1732 102.832 64.4524 99.5525 64.4524 95.5076C64.4524 91.4626 61.1732 88.1834 57.1282 88.1834C53.0833 88.1834 49.8041 91.4626 49.8041 95.5076ZM73.2413 95.5076C73.2413 99.5525 76.5205 102.832 80.5655 102.832C84.6104 102.832 87.8896 99.5525 87.8896 95.5076C87.8896 91.4626 84.6104 88.1834 80.5655 88.1834C76.5205 88.1834 73.2413 91.4626 73.2413 95.5076Z" fill="#0075FF"/>
</svg>
