<svg width="150" height="150" viewBox="0 0 150 150" fill="none" xmlns="http://www.w3.org/2000/svg">
<path d="M97.3626 55.1174C96.0352 43.4675 85.1101 34.0374 72.3275 34.0374C69.385 34.0374 66.755 34.0374 63.9199 35.0874C60.0674 27.4576 51.3325 22.5 41.2925 22.5C28.1499 22.5 17.4574 33.1102 17.4551 46.1549C17.4551 47.2125 17.5351 48.2848 17.69 49.3699C7.17012 53.4349 0 63.67 0 75C0 90.1626 12.4324 102.5 27.7151 102.5H93.665C106.808 102.5 117.5 91.8902 117.5 78.8452C117.5 66.0999 108.998 56.2951 97.3626 55.1174ZM93.6624 97.5H27.7151C15.1901 97.5 5.0001 87.4075 5.0001 75C5.0001 65.1149 11.6851 56.2474 21.2552 53.4375C22.5328 53.0625 23.2928 51.7526 22.9828 50.4574C22.6327 48.9949 22.4552 47.55 22.4552 46.1549C22.4552 35.8699 30.9053 27.4998 41.2928 27.4998C50.1352 27.4998 57.9352 32.3347 60.2578 39.2572C60.4978 39.9697 61.0453 40.5372 61.7502 40.8023C62.4551 41.0622 63.2402 40.9975 63.8903 40.6198C66.4778 39.1072 68.5629 39.0372 72.3278 39.0372C83.0754 39.0372 92.5002 47.6648 92.5002 57.4998C92.5002 58.8823 93.6202 59.9997 95.0001 59.9997C104.975 59.9997 112.5 68.0997 112.5 78.8446C112.5 89.1299 104.05 97.5 93.6624 97.5Z" fill="white"/>
<path d="M95.0001 54.9999C91.3175 54.9999 87.3627 55.9849 83.8626 57.7723C82.6327 58.3998 82.1452 59.9071 82.7725 61.1373C83.2149 62.0024 84.09 62.4999 84.9999 62.4999C85.3849 62.4999 85.7725 62.4123 86.1375 62.2274C88.9075 60.8101 92.1375 60 95.0001 60C96.38 60 97.5 58.8826 97.5 57.5001C97.5 56.1176 96.38 54.9999 95.0001 54.9999Z" fill="white"/>
<path d="M132.308 26.8699C132.465 25.7874 132.543 24.7125 132.543 23.6549C132.543 10.6099 121.85 0 108.708 0C98.6651 0 89.93 4.95762 86.0775 12.5874C83.2424 11.5374 80.6101 11.5374 77.6698 11.5374C66.5599 11.5374 57.0249 19.0348 54.4849 29.7724C54.2649 30.6999 54.5924 31.6723 55.3275 32.2772C57.6999 34.2322 59.3599 36.5821 60.2575 39.2572C60.4975 39.9697 61.045 40.5372 61.7499 40.8023C62.4548 41.0622 63.24 40.9975 63.8901 40.6198C66.4776 39.1072 68.5626 39.0372 72.3276 39.0372C83.0725 39.0372 92.4999 47.6648 92.4999 57.4998C92.4999 58.8823 93.6199 59.9997 94.9998 59.9997C104.547 59.9997 111.885 67.4171 112.442 77.6373C112.517 78.9624 113.612 79.9998 114.94 79.9998H122.285C137.567 79.9998 150 67.6623 150 52.4997C150 41.17 142.83 30.9349 132.308 26.8699ZM122.285 75H117.207C115.662 64.0925 107.747 56.1674 97.3649 55.115C96.0349 43.4651 85.1124 34.0351 72.3276 34.0351C69.385 34.0351 66.7526 34.0351 63.915 35.0877C62.8775 33.0478 61.4698 31.1651 59.7425 29.5151C62.2099 21.8051 69.385 16.5375 77.6701 16.5375C81.4351 16.5375 83.5201 16.6099 86.1076 18.1201C86.7577 18.4978 87.5426 18.5602 88.2478 18.3026C88.9526 18.0375 89.5002 17.47 89.7401 16.7575C92.0678 9.83496 99.8651 5.0001 108.708 5.0001C119.092 5.0001 127.542 13.3702 127.542 23.6552C127.542 25.0477 127.368 26.4952 127.017 27.9577C126.71 29.2503 127.467 30.5628 128.745 30.9378C138.315 33.7477 145 42.6152 145 52.5003C145 64.9075 134.81 75 122.285 75Z" fill="white"/>
<path d="M27.5001 107.5C26.1202 107.5 25.0002 108.617 25.0002 110V135C25.0002 136.383 26.1202 137.5 27.5001 137.5C28.88 137.5 30 136.383 30 135V110C30 108.618 28.88 107.5 27.5001 107.5Z" fill="white"/>
<path d="M39.9999 120H15C13.6201 120 12.5001 121.117 12.5001 122.5C12.5001 123.882 13.6201 125 15 125H39.9999C41.3798 125 42.4998 123.882 42.4998 122.5C42.4998 121.117 41.3801 120 39.9999 120Z" fill="white"/>
<path d="M36.7676 113.232C35.7926 112.255 34.2076 112.255 33.2326 113.232L18.2326 128.232C17.2553 129.21 17.2553 130.79 18.2326 131.767C18.7201 132.255 19.3603 132.5 20.0001 132.5C20.6399 132.5 21.2801 132.255 21.7676 131.767L36.7676 116.767C37.7449 115.79 37.7449 114.21 36.7676 113.232Z" fill="white"/>
<path d="M36.7676 128.232L21.7676 113.232C20.7926 112.255 19.2076 112.255 18.2326 113.232C17.2553 114.21 17.2553 115.79 18.2326 116.767L33.2326 131.767C33.7201 132.255 34.3603 132.5 35.0001 132.5C35.6399 132.5 36.2801 132.255 36.7676 131.767C37.7449 130.79 37.7449 129.21 36.7676 128.232Z" fill="white"/>
<path d="M60 120C58.6201 120 57.5001 121.117 57.5001 122.5V147.5C57.5001 148.882 58.6201 150 60 150C61.3799 150 62.4999 148.882 62.4999 147.5V122.5C62.4999 121.117 61.3799 120 60 120Z" fill="white"/>
<path d="M72.5001 132.5H47.5002C46.1203 132.5 45.0003 133.617 45.0003 135C45.0003 136.383 46.1203 137.5 47.5002 137.5H72.5001C73.88 137.5 75 136.383 75 135C75 133.617 73.88 132.5 72.5001 132.5Z" fill="white"/>
<path d="M69.2675 125.733C68.2925 124.755 66.7075 124.755 65.7325 125.733L50.7325 140.733C49.7549 141.71 49.7549 143.29 50.7325 144.267C51.22 144.755 51.8602 145 52.5 145C53.1401 145 53.78 144.755 54.2675 144.267L69.2675 129.267C70.2451 128.29 70.2451 126.71 69.2675 125.733Z" fill="white"/>
<path d="M69.2675 140.733L54.2675 125.733C53.2925 124.755 51.7075 124.755 50.7325 125.733C49.7549 126.71 49.7549 128.29 50.7325 129.267L65.7325 144.267C66.22 144.755 66.8602 145 67.5 145C68.1402 145 68.78 144.755 69.2675 144.267C70.2451 143.29 70.2451 141.71 69.2675 140.733Z" fill="white"/>
<path d="M125 120C123.62 120 122.5 121.117 122.5 122.5V147.5C122.5 148.882 123.62 150 125 150C126.38 150 127.5 148.882 127.5 147.5V122.5C127.5 121.117 126.38 120 125 120Z" fill="white"/>
<path d="M137.5 132.5H112.5C111.12 132.5 110 133.617 110 135C110 136.383 111.12 137.5 112.5 137.5H137.5C138.88 137.5 140 136.383 140 135C140 133.617 138.88 132.5 137.5 132.5Z" fill="white"/>
<path d="M134.268 125.733C133.293 124.755 131.708 124.755 130.733 125.733L115.733 140.733C114.755 141.71 114.755 143.29 115.733 144.267C116.22 144.755 116.86 145 117.5 145C118.14 145 118.78 144.755 119.268 144.267L134.268 129.267C135.245 128.29 135.245 126.71 134.268 125.733Z" fill="white"/>
<path d="M134.268 140.733L119.268 125.733C118.293 124.755 116.708 124.755 115.733 125.733C114.755 126.71 114.755 128.29 115.733 129.267L130.733 144.267C131.22 144.755 131.86 145 132.5 145C133.14 145 133.78 144.755 134.268 144.267C135.245 143.29 135.245 141.71 134.268 140.733Z" fill="white"/>
<path d="M92.4999 107.5C91.12 107.5 90 108.617 90 110V135C90 136.383 91.12 137.5 92.4999 137.5C93.8798 137.5 94.9998 136.383 94.9998 135V110C95.0001 108.618 93.8801 107.5 92.4999 107.5Z" fill="white"/>
<path d="M105 120H80.0001C78.6202 120 77.5002 121.117 77.5002 122.5C77.5002 123.882 78.6202 125 80.0001 125H105C106.38 125 107.5 123.882 107.5 122.5C107.5 121.117 106.38 120 105 120Z" fill="white"/>
<path d="M101.767 113.232C100.792 112.255 99.2074 112.255 98.2324 113.232L83.2324 128.232C82.2548 129.21 82.2548 130.79 83.2324 131.767C83.7199 132.255 84.36 132.5 84.9999 132.5C85.64 132.5 86.2799 132.255 86.7674 131.767L101.767 116.767C102.745 115.79 102.745 114.21 101.767 113.232Z" fill="white"/>
<path d="M101.767 128.232L86.7674 113.232C85.7924 112.255 84.2074 112.255 83.2324 113.232C82.2548 114.21 82.2548 115.79 83.2324 116.767L98.2324 131.767C98.7199 132.255 99.36 132.5 99.9999 132.5C100.64 132.5 101.28 132.255 101.767 131.767C102.745 130.79 102.745 129.21 101.767 128.232Z" fill="white"/>
</svg>
