<svg width="174" height="174" viewBox="0 0 174 174" fill="none" xmlns="http://www.w3.org/2000/svg">
<path d="M117.841 56.1587C110.016 48.3333 98.9683 43.2698 87 43.2698C75.0318 43.2698 63.9841 48.1032 56.1587 56.1587C48.3333 63.9841 43.2698 75.0317 43.2698 87C43.2698 98.9682 48.3333 110.016 56.1587 117.841C63.9841 125.667 75.0318 130.73 87 130.73C98.9683 130.73 110.016 125.897 117.841 117.841C125.667 110.016 130.73 98.9682 130.73 87C130.73 75.0317 125.897 63.9841 117.841 56.1587ZM109.556 109.556C103.802 115.309 95.746 118.762 87 118.762C78.254 118.762 70.1984 115.309 64.4444 109.556C58.6905 103.802 55.2381 95.746 55.2381 87C55.2381 78.2539 58.6905 70.1984 64.4444 64.4444C70.1984 58.6905 78.254 55.2381 87 55.2381C95.746 55.2381 103.802 58.6905 109.556 64.4444C115.31 70.1984 118.762 78.2539 118.762 87C118.762 95.746 115.31 103.802 109.556 109.556Z" fill="#FFD154"/>
<path d="M168.016 81.0158H150.293C147.071 81.0158 144.309 83.7778 144.309 87C144.309 90.2222 147.071 92.9841 150.293 92.9841H168.016C171.238 92.9841 174 90.2222 174 87C174 83.7778 171.238 81.0158 168.016 81.0158Z" fill="#FFD154"/>
<path d="M86.9999 144.309C83.7777 144.309 81.0157 147.071 81.0157 150.294V168.016C81.0157 171.238 83.7777 174 86.9999 174C90.2221 174 92.984 171.238 92.984 168.016V150.294C92.984 147.071 90.2221 144.309 86.9999 144.309Z" fill="#FFD154"/>
<path d="M148.453 140.167L135.794 127.508C133.722 125.206 129.81 125.206 127.508 127.508C125.206 129.81 125.206 133.492 127.508 135.794L140.167 148.452C142.468 150.754 146.151 150.754 148.453 148.452C150.754 146.151 150.754 142.468 148.453 140.167Z" fill="#FFD154"/>
<path d="M86.9999 0C83.7777 0 81.0157 2.7619 81.0157 5.98413V23.7063C81.0157 26.9286 83.7777 29.6905 86.9999 29.6905C90.2221 29.6905 92.984 26.9286 92.984 23.7063V5.98413C92.984 2.7619 90.2221 0 86.9999 0Z" fill="#FFD154"/>
<path d="M148.683 25.5476C146.381 23.246 142.698 23.246 140.397 25.5476L127.738 38.2063C125.437 40.5079 125.437 44.1905 127.738 46.4921C129.81 48.7936 133.722 48.7936 136.024 46.4921L148.683 33.8333C150.984 31.5317 150.984 27.8492 148.683 25.5476Z" fill="#FFD154"/>
<path d="M23.7063 81.0158H5.98413C2.7619 81.0158 0 83.7778 0 87C0 90.2222 2.53175 92.9841 5.98413 92.9841H23.7063C26.9286 92.9841 29.6905 90.2222 29.6905 87C29.6905 83.7778 26.9286 81.0158 23.7063 81.0158Z" fill="#FFD154"/>
<path d="M46.2619 127.508C44.1905 125.206 40.2778 125.206 37.9762 127.508L25.3174 140.167C23.0159 142.468 23.0159 146.151 25.3174 148.452C27.619 150.754 31.3016 150.754 33.6032 148.452L46.2619 135.794C48.5635 133.492 48.5635 129.81 46.2619 127.508Z" fill="#FFD154"/>
<path d="M46.2619 38.2063L33.6032 25.5476C31.3016 23.246 27.619 23.246 25.3174 25.5476C23.0159 27.8492 23.0159 31.5317 25.3174 33.8333L37.9762 46.4921C40.2778 48.7936 43.9603 48.7936 46.2619 46.4921C48.5635 44.1905 48.5635 40.5079 46.2619 38.2063Z" fill="#FFD154"/>
</svg>
